<mxfile host="app.diagrams.net" modified="2024-05-21T05:08:52.845Z" agent="Mozilla/5.0 (Windows NT 10.0; Win64; x64) AppleWebKit/537.36 (KHTML, like Gecko) Chrome/124.0.0.0 Safari/537.36" etag="P41h_PiU6zaSGi-4KysW" version="24.4.4" type="device">
  <diagram name="PÃ¡gina-1" id="P-8felPZYKbOe451oFCf">
    <mxGraphModel dx="819" dy="426" grid="1" gridSize="10" guides="1" tooltips="1" connect="1" arrows="1" fold="1" page="1" pageScale="1" pageWidth="850" pageHeight="1100" math="0" shadow="0">
      <root>
        <mxCell id="0" />
        <mxCell id="1" parent="0" />
        <mxCell id="-CTl8n3HjtSTAVJa_w4Q-31" value="" style="rounded=0;whiteSpace=wrap;html=1;fontColor=default;strokeColor=none;" vertex="1" parent="1">
          <mxGeometry x="110" y="70" width="510" height="160" as="geometry" />
        </mxCell>
        <mxCell id="-CTl8n3HjtSTAVJa_w4Q-13" value="Operative System" style="shape=umlFrame;whiteSpace=wrap;html=1;pointerEvents=0;recursiveResize=0;container=1;collapsible=0;width=120;height=30;fillColor=#647687;strokeColor=#314354;fontColor=#ffffff;" vertex="1" parent="1">
          <mxGeometry x="320" y="80" width="290" height="140" as="geometry" />
        </mxCell>
        <mxCell id="-CTl8n3HjtSTAVJa_w4Q-27" value="" style="rounded=0;whiteSpace=wrap;html=1;fillColor=#f5f5f5;fontColor=#333333;strokeColor=#666666;" vertex="1" parent="-CTl8n3HjtSTAVJa_w4Q-13">
          <mxGeometry x="10" y="40" width="270" height="90" as="geometry" />
        </mxCell>
        <mxCell id="-CTl8n3HjtSTAVJa_w4Q-15" value="Application Java" style="text;html=1;align=center;verticalAlign=middle;whiteSpace=wrap;rounded=0;fontStyle=2" vertex="1" parent="-CTl8n3HjtSTAVJa_w4Q-13">
          <mxGeometry x="10" y="40" width="100" height="20" as="geometry" />
        </mxCell>
        <mxCell id="-CTl8n3HjtSTAVJa_w4Q-14" value="&amp;lt;artifact&amp;gt;&lt;div&gt;&lt;b&gt;eccommer.jar&lt;/b&gt;&lt;/div&gt;" style="html=1;whiteSpace=wrap;fillColor=#ffff88;strokeColor=#36393d;" vertex="1" parent="-CTl8n3HjtSTAVJa_w4Q-13">
          <mxGeometry x="20" y="70" width="110" height="50" as="geometry" />
        </mxCell>
        <mxCell id="-CTl8n3HjtSTAVJa_w4Q-19" value="Read" style="text;html=1;align=center;verticalAlign=middle;whiteSpace=wrap;rounded=0;fontStyle=0;fontSize=6;" vertex="1" parent="-CTl8n3HjtSTAVJa_w4Q-13">
          <mxGeometry x="135" y="80" width="30" height="10" as="geometry" />
        </mxCell>
        <mxCell id="-CTl8n3HjtSTAVJa_w4Q-16" value="&amp;nbsp; Files text" style="rounded=0;whiteSpace=wrap;html=1;align=left;fillColor=#ffff88;strokeColor=#36393d;" vertex="1" parent="-CTl8n3HjtSTAVJa_w4Q-13">
          <mxGeometry x="170" y="70" width="100" height="50" as="geometry" />
        </mxCell>
        <mxCell id="-CTl8n3HjtSTAVJa_w4Q-17" style="edgeStyle=orthogonalEdgeStyle;rounded=0;orthogonalLoop=1;jettySize=auto;html=1;entryX=0;entryY=0.5;entryDx=0;entryDy=0;" edge="1" parent="-CTl8n3HjtSTAVJa_w4Q-13" source="-CTl8n3HjtSTAVJa_w4Q-14" target="-CTl8n3HjtSTAVJa_w4Q-16">
          <mxGeometry relative="1" as="geometry" />
        </mxCell>
        <mxCell id="-CTl8n3HjtSTAVJa_w4Q-18" value="" style="image;aspect=fixed;perimeter=ellipsePerimeter;html=1;align=center;shadow=0;dashed=0;spacingTop=3;image=img/lib/active_directory/documents.svg;" vertex="1" parent="-CTl8n3HjtSTAVJa_w4Q-13">
          <mxGeometry x="236" y="78" width="26.4" height="40" as="geometry" />
        </mxCell>
        <mxCell id="-CTl8n3HjtSTAVJa_w4Q-28" value="Local Server" style="text;html=1;align=center;verticalAlign=middle;whiteSpace=wrap;rounded=0;fontStyle=1" vertex="1" parent="-CTl8n3HjtSTAVJa_w4Q-13">
          <mxGeometry x="190" y="40" width="90" height="30" as="geometry" />
        </mxCell>
        <mxCell id="-CTl8n3HjtSTAVJa_w4Q-20" value="" style="image;aspect=fixed;perimeter=ellipsePerimeter;html=1;align=center;shadow=0;dashed=0;spacingTop=3;image=img/lib/active_directory/home_page.svg;" vertex="1" parent="1">
          <mxGeometry x="200.25" y="110" width="88.89" height="80" as="geometry" />
        </mxCell>
        <mxCell id="-CTl8n3HjtSTAVJa_w4Q-30" style="edgeStyle=orthogonalEdgeStyle;rounded=0;orthogonalLoop=1;jettySize=auto;html=1;entryX=0;entryY=0.5;entryDx=0;entryDy=0;" edge="1" parent="1" source="-CTl8n3HjtSTAVJa_w4Q-22" target="-CTl8n3HjtSTAVJa_w4Q-20">
          <mxGeometry relative="1" as="geometry" />
        </mxCell>
        <mxCell id="-CTl8n3HjtSTAVJa_w4Q-22" value="" style="image;aspect=fixed;perimeter=ellipsePerimeter;html=1;align=center;shadow=0;dashed=0;spacingTop=3;image=img/lib/active_directory/user.svg;" vertex="1" parent="1">
          <mxGeometry x="120" y="112" width="27.75" height="75" as="geometry" />
        </mxCell>
        <mxCell id="-CTl8n3HjtSTAVJa_w4Q-25" value="Use" style="text;html=1;align=center;verticalAlign=middle;whiteSpace=wrap;rounded=0;fontStyle=0;fontSize=9;" vertex="1" parent="1">
          <mxGeometry x="157" y="132" width="30" height="10" as="geometry" />
        </mxCell>
        <mxCell id="-CTl8n3HjtSTAVJa_w4Q-26" value="Get" style="text;html=1;align=center;verticalAlign=middle;whiteSpace=wrap;rounded=0;fontStyle=0;fontSize=9;" vertex="1" parent="1">
          <mxGeometry x="287.14" y="132" width="30" height="10" as="geometry" />
        </mxCell>
        <mxCell id="-CTl8n3HjtSTAVJa_w4Q-29" style="edgeStyle=orthogonalEdgeStyle;rounded=0;orthogonalLoop=1;jettySize=auto;html=1;exitX=1;exitY=0.5;exitDx=0;exitDy=0;entryX=0;entryY=0.5;entryDx=0;entryDy=0;entryPerimeter=0;" edge="1" parent="1" source="-CTl8n3HjtSTAVJa_w4Q-20" target="-CTl8n3HjtSTAVJa_w4Q-13">
          <mxGeometry relative="1" as="geometry" />
        </mxCell>
      </root>
    </mxGraphModel>
  </diagram>
</mxfile>
